# MagicaVoxel @ Ephtracy

# group
o 

# material
mtllib cofre.mtl
usemtl palette

# normals
vn -1 0 0
vn 1 0 0
vn 0 0 1
vn 0 0 -1
vn 0 -1 0
vn 0 1 0

# texcoords
vt 0.626953 0.5
vt 0.630859 0.5
vt 0.634766 0.5
vt 0.638672 0.5

# verts
v -0.9 0 1.2
v -0.9 0 1
v -0.9 0 0.2
v -0.9 0 0
v -0.9 1.7 1.2
v -0.9 1.7 1
v -0.9 1.7 0.2
v -0.9 1.7 0
v -0.8 0 1.4
v -0.8 0 1.2
v -0.8 0 1
v -0.8 0 0.2
v -0.8 0 0
v -0.8 0 -0.2
v -0.8 0.2 1
v -0.8 0.2 0.2
v -0.8 1.3 1
v -0.8 1.3 0.2
v -0.8 1.5 1.4
v -0.8 1.5 1.2
v -0.8 1.5 1
v -0.8 1.5 0.2
v -0.8 1.5 0
v -0.8 1.5 -0.2
v -0.7 0.2 1.2
v -0.7 0.2 0
v -0.7 0.3 0.9
v -0.7 0.3 0.3
v -0.7 0.4 0.8
v -0.7 0.4 0.7
v -0.7 0.4 0.5
v -0.7 0.4 0.4
v -0.7 0.6 0.8
v -0.7 0.6 0.7
v -0.7 0.6 0.5
v -0.7 0.6 0.4
v -0.7 0.8 0.9
v -0.7 0.8 0.7
v -0.7 0.8 0.5
v -0.7 0.8 0.3
v -0.7 1.1 0.7
v -0.7 1.1 0.5
v -0.7 1.3 1.2
v -0.7 1.3 0
v -0.4 0 1.5
v -0.4 0 1.4
v -0.4 0 -0.2
v -0.4 0 -0.3
v -0.4 0.2 1.4
v -0.4 0.2 -0.2
v -0.4 1.3 1.4
v -0.4 1.3 -0.2
v -0.4 1.5 1.4
v -0.4 1.5 1.2
v -0.4 1.5 1
v -0.4 1.5 0.2
v -0.4 1.5 0
v -0.4 1.5 -0.2
v -0.4 1.6 1.5
v -0.4 1.6 1.2
v -0.4 1.6 1
v -0.4 1.6 0.2
v -0.4 1.6 0
v -0.4 1.6 -0.3
v 0.2 0 1.5
v 0.2 0 1.4
v 0.2 0 -0.2
v 0.2 0 -0.3
v 0.2 0.2 1.4
v 0.2 0.2 -0.2
v 0.2 1.3 1.4
v 0.2 1.3 -0.2
v 0.2 1.5 1.4
v 0.2 1.5 1.2
v 0.2 1.5 1
v 0.2 1.5 0.2
v 0.2 1.5 0
v 0.2 1.5 -0.2
v 0.2 1.6 1.5
v 0.2 1.6 1.2
v 0.2 1.6 1
v 0.2 1.6 0.2
v 0.2 1.6 0
v 0.2 1.6 -0.3
v 0.6 0.2 1.4
v 0.6 0.2 1.3
v 0.6 0.2 -0.1
v 0.6 0.2 -0.2
v 0.6 1.3 1.4
v 0.6 1.3 1.3
v 0.6 1.3 -0.1
v 0.6 1.3 -0.2
v 0.6 1.4 1.2
v 0.6 1.4 0
v 0.6 1.5 1.2
v 0.6 1.5 1
v 0.6 1.5 0.2
v 0.6 1.5 0
v 0.8 0.2 1.2
v 0.8 0.2 1
v 0.8 0.2 0.2
v 0.8 0.2 0
v 0.8 1.3 1.2
v 0.8 1.3 1
v 0.8 1.3 0.2
v 0.8 1.3 0
v -0.8 0.2 1.2
v -0.8 0.2 1
v -0.8 0.2 0.2
v -0.8 0.2 0
v -0.8 1.3 1.2
v -0.8 1.3 1
v -0.8 1.3 0.2
v -0.8 1.3 0
v -0.6 0.2 1.4
v -0.6 0.2 1.3
v -0.6 0.2 -0.1
v -0.6 0.2 -0.2
v -0.6 1.3 1.4
v -0.6 1.3 1.3
v -0.6 1.3 -0.1
v -0.6 1.3 -0.2
v -0.6 1.4 1.2
v -0.6 1.4 0
v -0.6 1.5 1.2
v -0.6 1.5 1
v -0.6 1.5 0.2
v -0.6 1.5 0
v -0.2 0 1.5
v -0.2 0 1.4
v -0.2 0 -0.2
v -0.2 0 -0.3
v -0.2 0.2 1.4
v -0.2 0.2 -0.2
v -0.2 1.3 1.4
v -0.2 1.3 -0.2
v -0.2 1.5 1.4
v -0.2 1.5 1.2
v -0.2 1.5 1
v -0.2 1.5 0.2
v -0.2 1.5 0
v -0.2 1.5 -0.2
v -0.2 1.6 1.5
v -0.2 1.6 1.2
v -0.2 1.6 1
v -0.2 1.6 0.2
v -0.2 1.6 0
v -0.2 1.6 -0.3
v 0.4 0 1.5
v 0.4 0 1.4
v 0.4 0 -0.2
v 0.4 0 -0.3
v 0.4 0.2 1.4
v 0.4 0.2 -0.2
v 0.4 1.3 1.4
v 0.4 1.3 -0.2
v 0.4 1.5 1.4
v 0.4 1.5 1.2
v 0.4 1.5 1
v 0.4 1.5 0.2
v 0.4 1.5 0
v 0.4 1.5 -0.2
v 0.4 1.6 1.5
v 0.4 1.6 1.2
v 0.4 1.6 1
v 0.4 1.6 0.2
v 0.4 1.6 0
v 0.4 1.6 -0.3
v 0.7 0.2 1.2
v 0.7 0.2 0
v 0.7 0.3 0.9
v 0.7 0.3 0.3
v 0.7 0.4 0.8
v 0.7 0.4 0.7
v 0.7 0.4 0.5
v 0.7 0.4 0.4
v 0.7 0.6 0.8
v 0.7 0.6 0.7
v 0.7 0.6 0.5
v 0.7 0.6 0.4
v 0.7 0.8 0.9
v 0.7 0.8 0.7
v 0.7 0.8 0.5
v 0.7 0.8 0.3
v 0.7 1.1 0.7
v 0.7 1.1 0.5
v 0.7 1.3 1.2
v 0.7 1.3 0
v 0.8 0 1.4
v 0.8 0 1.2
v 0.8 0 1
v 0.8 0 0.2
v 0.8 0 0
v 0.8 0 -0.2
v 0.8 0.2 1
v 0.8 0.2 0.2
v 0.8 1.3 1
v 0.8 1.3 0.2
v 0.8 1.5 1.4
v 0.8 1.5 1.2
v 0.8 1.5 1
v 0.8 1.5 0.2
v 0.8 1.5 0
v 0.8 1.5 -0.2
v 0.9 0 1.2
v 0.9 0 1
v 0.9 0 0.2
v 0.9 0 0
v 0.9 1.7 1.2
v 0.9 1.7 1
v 0.9 1.7 0.2
v 0.9 1.7 0
v -0.4 0 1.5
v -0.4 1.6 1.5
v -0.2 0 1.5
v -0.2 1.6 1.5
v 0.2 0 1.5
v 0.2 1.6 1.5
v 0.4 0 1.5
v 0.4 1.6 1.5
v -0.8 0 1.4
v -0.8 1.5 1.4
v -0.6 0.2 1.4
v -0.6 1.3 1.4
v -0.4 0 1.4
v -0.4 0.2 1.4
v -0.4 1.3 1.4
v -0.4 1.5 1.4
v -0.2 0 1.4
v -0.2 0.2 1.4
v -0.2 1.3 1.4
v -0.2 1.5 1.4
v 0.2 0 1.4
v 0.2 0.2 1.4
v 0.2 1.3 1.4
v 0.2 1.5 1.4
v 0.4 0 1.4
v 0.4 0.2 1.4
v 0.4 1.3 1.4
v 0.4 1.5 1.4
v 0.6 0.2 1.4
v 0.6 1.3 1.4
v 0.8 0 1.4
v 0.8 1.5 1.4
v -0.6 0.2 1.3
v -0.6 1.3 1.3
v -0.3 0.5 1.3
v -0.3 0.9 1.3
v -0.2 0.4 1.3
v -0.2 0.5 1.3
v -0.2 0.6 1.3
v -0.2 0.7 1.3
v -0.1 0.6 1.3
v -0.1 0.7 1.3
v -0.1 0.9 1.3
v -0.1 1.1 1.3
v 0.1 0.6 1.3
v 0.1 0.7 1.3
v 0.1 0.9 1.3
v 0.1 1.1 1.3
v 0.2 0.4 1.3
v 0.2 0.5 1.3
v 0.2 0.6 1.3
v 0.2 0.7 1.3
v 0.3 0.5 1.3
v 0.3 0.9 1.3
v 0.6 0.2 1.3
v 0.6 1.3 1.3
v -0.9 0 1.2
v -0.9 1.7 1.2
v -0.8 0 1.2
v -0.8 1.5 1.2
v -0.4 1.5 1.2
v -0.4 1.6 1.2
v -0.2 1.5 1.2
v -0.2 1.6 1.2
v 0.2 1.5 1.2
v 0.2 1.6 1.2
v 0.4 1.5 1.2
v 0.4 1.6 1.2
v 0.8 0 1.2
v 0.8 1.5 1.2
v 0.9 0 1.2
v 0.9 1.7 1.2
v -0.9 0 0.2
v -0.9 1.7 0.2
v -0.8 0 0.2
v -0.8 0.2 0.2
v -0.8 1.3 0.2
v -0.8 1.5 0.2
v -0.6 1.5 0.2
v -0.4 1.5 0.2
v -0.4 1.6 0.2
v -0.2 1.5 0.2
v -0.2 1.6 0.2
v 0.2 1.5 0.2
v 0.2 1.6 0.2
v 0.4 1.5 0.2
v 0.4 1.6 0.2
v 0.6 1.5 0.2
v 0.8 0 0.2
v 0.8 0.2 0.2
v 0.8 1.3 0.2
v 0.8 1.5 0.2
v 0.9 0 0.2
v 0.9 1.7 0.2
v -0.8 0.2 0
v -0.8 1.3 0
v -0.7 0.2 0
v -0.7 1.3 0
v -0.6 1.4 0
v -0.6 1.5 0
v 0.6 1.4 0
v 0.6 1.5 0
v 0.7 0.2 0
v 0.7 1.3 0
v 0.8 0.2 0
v 0.8 1.3 0
v -0.4 0.2 -0.2
v -0.4 1.3 -0.2
v -0.2 0.2 -0.2
v -0.2 1.3 -0.2
v 0.2 0.2 -0.2
v 0.2 1.3 -0.2
v 0.4 0.2 -0.2
v 0.4 1.3 -0.2
v -0.4 0.2 1.4
v -0.4 1.3 1.4
v -0.2 0.2 1.4
v -0.2 1.3 1.4
v 0.2 0.2 1.4
v 0.2 1.3 1.4
v 0.4 0.2 1.4
v 0.4 1.3 1.4
v -0.8 0.2 1.2
v -0.8 1.3 1.2
v -0.7 0.2 1.2
v -0.7 1.3 1.2
v -0.6 1.4 1.2
v -0.6 1.5 1.2
v 0.6 1.4 1.2
v 0.6 1.5 1.2
v 0.7 0.2 1.2
v 0.7 1.3 1.2
v 0.8 0.2 1.2
v 0.8 1.3 1.2
v -0.9 0 1
v -0.9 1.7 1
v -0.8 0 1
v -0.8 0.2 1
v -0.8 1.3 1
v -0.8 1.5 1
v -0.6 1.5 1
v -0.4 1.5 1
v -0.4 1.6 1
v -0.2 1.5 1
v -0.2 1.6 1
v 0.2 1.5 1
v 0.2 1.6 1
v 0.4 1.5 1
v 0.4 1.6 1
v 0.6 1.5 1
v 0.8 0 1
v 0.8 0.2 1
v 0.8 1.3 1
v 0.8 1.5 1
v 0.9 0 1
v 0.9 1.7 1
v -0.9 0 0
v -0.9 1.7 0
v -0.8 0 0
v -0.8 1.5 0
v -0.4 1.5 0
v -0.4 1.6 0
v -0.2 1.5 0
v -0.2 1.6 0
v 0.2 1.5 0
v 0.2 1.6 0
v 0.4 1.5 0
v 0.4 1.6 0
v 0.8 0 0
v 0.8 1.5 0
v 0.9 0 0
v 0.9 1.7 0
v -0.6 0.2 -0.1
v -0.6 1.3 -0.1
v -0.3 0.4 -0.1
v -0.3 1.1 -0.1
v -0.2 0.7 -0.1
v -0.2 0.8 -0.1
v -0.2 1 -0.1
v -0.2 1.1 -0.1
v -0.1 0.5 -0.1
v -0.1 0.6 -0.1
v -0.1 0.7 -0.1
v -0.1 0.8 -0.1
v -0.1 0.9 -0.1
v -0.1 1 -0.1
v 0.1 0.5 -0.1
v 0.1 0.6 -0.1
v 0.1 0.7 -0.1
v 0.1 0.8 -0.1
v 0.1 0.9 -0.1
v 0.1 1 -0.1
v 0.2 0.7 -0.1
v 0.2 0.8 -0.1
v 0.2 1 -0.1
v 0.2 1.1 -0.1
v 0.3 0.4 -0.1
v 0.3 1.1 -0.1
v 0.6 0.2 -0.1
v 0.6 1.3 -0.1
v -0.8 0 -0.2
v -0.8 1.5 -0.2
v -0.6 0.2 -0.2
v -0.6 1.3 -0.2
v -0.4 0 -0.2
v -0.4 0.2 -0.2
v -0.4 1.3 -0.2
v -0.4 1.5 -0.2
v -0.2 0 -0.2
v -0.2 0.2 -0.2
v -0.2 1.3 -0.2
v -0.2 1.5 -0.2
v 0.2 0 -0.2
v 0.2 0.2 -0.2
v 0.2 1.3 -0.2
v 0.2 1.5 -0.2
v 0.4 0 -0.2
v 0.4 0.2 -0.2
v 0.4 1.3 -0.2
v 0.4 1.5 -0.2
v 0.6 0.2 -0.2
v 0.6 1.3 -0.2
v 0.8 0 -0.2
v 0.8 1.5 -0.2
v -0.4 0 -0.3
v -0.4 1.6 -0.3
v -0.2 0 -0.3
v -0.2 1.6 -0.3
v 0.2 0 -0.3
v 0.2 1.6 -0.3
v 0.4 0 -0.3
v 0.4 1.6 -0.3
v -0.4 0 1.5
v -0.2 0 1.5
v 0.2 0 1.5
v 0.4 0 1.5
v -0.8 0 1.4
v -0.4 0 1.4
v -0.2 0 1.4
v 0.2 0 1.4
v 0.4 0 1.4
v 0.8 0 1.4
v -0.9 0 1.2
v -0.8 0 1.2
v 0.8 0 1.2
v 0.9 0 1.2
v -0.9 0 1
v -0.8 0 1
v 0.8 0 1
v 0.9 0 1
v -0.9 0 0.2
v -0.8 0 0.2
v 0.8 0 0.2
v 0.9 0 0.2
v -0.9 0 0
v -0.8 0 0
v 0.8 0 0
v 0.9 0 0
v -0.8 0 -0.2
v -0.4 0 -0.2
v -0.2 0 -0.2
v 0.2 0 -0.2
v 0.4 0 -0.2
v 0.8 0 -0.2
v -0.4 0 -0.3
v -0.2 0 -0.3
v 0.2 0 -0.3
v 0.4 0 -0.3
v -0.6 1.3 1.4
v -0.4 1.3 1.4
v -0.2 1.3 1.4
v 0.2 1.3 1.4
v 0.4 1.3 1.4
v 0.6 1.3 1.4
v -0.6 1.3 1.3
v 0.6 1.3 1.3
v -0.8 1.3 1.2
v -0.7 1.3 1.2
v 0.7 1.3 1.2
v 0.8 1.3 1.2
v -0.8 1.3 1
v 0.8 1.3 1
v -0.8 1.3 0.2
v 0.8 1.3 0.2
v -0.8 1.3 0
v -0.7 1.3 0
v 0.7 1.3 0
v 0.8 1.3 0
v -0.6 1.3 -0.1
v 0.6 1.3 -0.1
v -0.6 1.3 -0.2
v -0.4 1.3 -0.2
v -0.2 1.3 -0.2
v 0.2 1.3 -0.2
v 0.4 1.3 -0.2
v 0.6 1.3 -0.2
v -0.6 1.5 1.2
v 0.6 1.5 1.2
v -0.6 1.5 1
v -0.4 1.5 1
v -0.2 1.5 1
v 0.2 1.5 1
v 0.4 1.5 1
v 0.6 1.5 1
v -0.6 1.5 0.2
v -0.4 1.5 0.2
v -0.2 1.5 0.2
v 0.2 1.5 0.2
v 0.4 1.5 0.2
v 0.6 1.5 0.2
v -0.6 1.5 0
v 0.6 1.5 0
v -0.6 0.2 1.4
v -0.4 0.2 1.4
v -0.2 0.2 1.4
v 0.2 0.2 1.4
v 0.4 0.2 1.4
v 0.6 0.2 1.4
v -0.6 0.2 1.3
v 0.6 0.2 1.3
v -0.8 0.2 1.2
v -0.7 0.2 1.2
v 0.7 0.2 1.2
v 0.8 0.2 1.2
v -0.8 0.2 1
v 0.8 0.2 1
v -0.8 0.2 0.2
v 0.8 0.2 0.2
v -0.8 0.2 0
v -0.7 0.2 0
v 0.7 0.2 0
v 0.8 0.2 0
v -0.6 0.2 -0.1
v 0.6 0.2 -0.1
v -0.6 0.2 -0.2
v -0.4 0.2 -0.2
v -0.2 0.2 -0.2
v 0.2 0.2 -0.2
v 0.4 0.2 -0.2
v 0.6 0.2 -0.2
v -0.6 1.4 1.2
v 0.6 1.4 1.2
v -0.6 1.4 0
v 0.6 1.4 0
v -0.8 1.5 1.4
v -0.4 1.5 1.4
v -0.2 1.5 1.4
v 0.2 1.5 1.4
v 0.4 1.5 1.4
v 0.8 1.5 1.4
v -0.8 1.5 1.2
v -0.4 1.5 1.2
v -0.2 1.5 1.2
v 0.2 1.5 1.2
v 0.4 1.5 1.2
v 0.8 1.5 1.2
v -0.8 1.5 1
v -0.6 1.5 1
v 0.6 1.5 1
v 0.8 1.5 1
v -0.8 1.5 0.2
v -0.6 1.5 0.2
v 0.6 1.5 0.2
v 0.8 1.5 0.2
v -0.8 1.5 0
v -0.4 1.5 0
v -0.2 1.5 0
v 0.2 1.5 0
v 0.4 1.5 0
v 0.8 1.5 0
v -0.8 1.5 -0.2
v -0.4 1.5 -0.2
v -0.2 1.5 -0.2
v 0.2 1.5 -0.2
v 0.4 1.5 -0.2
v 0.8 1.5 -0.2
v -0.4 1.6 1.5
v -0.2 1.6 1.5
v 0.2 1.6 1.5
v 0.4 1.6 1.5
v -0.4 1.6 1.2
v -0.2 1.6 1.2
v 0.2 1.6 1.2
v 0.4 1.6 1.2
v -0.4 1.6 1
v -0.2 1.6 1
v 0.2 1.6 1
v 0.4 1.6 1
v -0.4 1.6 0.2
v -0.2 1.6 0.2
v 0.2 1.6 0.2
v 0.4 1.6 0.2
v -0.4 1.6 0
v -0.2 1.6 0
v 0.2 1.6 0
v 0.4 1.6 0
v -0.4 1.6 -0.3
v -0.2 1.6 -0.3
v 0.2 1.6 -0.3
v 0.4 1.6 -0.3
v -0.9 1.7 1.2
v 0.9 1.7 1.2
v -0.9 1.7 1
v 0.9 1.7 1
v -0.9 1.7 0.2
v 0.9 1.7 0.2
v -0.9 1.7 0
v 0.9 1.7 0

# faces
f 5/4/1 2/4/1 1/4/1
f 6/4/1 2/4/1 5/4/1
f 7/4/1 4/4/1 3/4/1
f 8/4/1 4/4/1 7/4/1
f 15/1/1 12/1/1 11/1/1
f 16/1/1 12/1/1 15/1/1
f 19/1/1 10/1/1 9/1/1
f 20/1/1 10/1/1 19/1/1
f 21/1/1 18/1/1 17/1/1
f 22/1/1 18/1/1 21/1/1
f 23/1/1 14/1/1 13/1/1
f 24/1/1 14/1/1 23/1/1
f 27/2/1 26/2/1 25/2/1
f 28/2/1 26/2/1 27/2/1
f 29/3/1 28/3/1 27/3/1
f 30/3/1 28/3/1 29/3/1
f 31/3/1 28/3/1 30/3/1
f 32/3/1 28/3/1 31/3/1
f 33/3/1 29/3/1 27/3/1
f 33/2/1 30/2/1 29/2/1
f 34/3/1 31/3/1 30/3/1
f 34/2/1 30/2/1 33/2/1
f 35/2/1 32/2/1 31/2/1
f 35/3/1 31/3/1 34/3/1
f 36/3/1 28/3/1 32/3/1
f 36/2/1 32/2/1 35/2/1
f 37/2/1 27/2/1 25/2/1
f 37/3/1 35/3/1 34/3/1
f 37/3/1 36/3/1 35/3/1
f 37/3/1 33/3/1 27/3/1
f 37/3/1 34/3/1 33/3/1
f 38/3/1 36/3/1 37/3/1
f 39/3/1 36/3/1 38/3/1
f 40/3/1 28/3/1 36/3/1
f 40/3/1 36/3/1 39/3/1
f 40/2/1 26/2/1 28/2/1
f 41/3/1 39/3/1 38/3/1
f 41/2/1 38/2/1 37/2/1
f 42/2/1 40/2/1 39/2/1
f 42/3/1 39/3/1 41/3/1
f 43/2/1 41/2/1 37/2/1
f 43/2/1 37/2/1 25/2/1
f 43/2/1 42/2/1 41/2/1
f 44/2/1 26/2/1 40/2/1
f 44/2/1 42/2/1 43/2/1
f 44/2/1 40/2/1 42/2/1
f 49/4/1 46/4/1 45/4/1
f 50/4/1 48/4/1 47/4/1
f 51/4/1 49/4/1 45/4/1
f 52/4/1 48/4/1 50/4/1
f 53/4/1 51/4/1 45/4/1
f 58/4/1 48/4/1 52/4/1
f 59/4/1 53/4/1 45/4/1
f 59/4/1 54/4/1 53/4/1
f 60/4/1 54/4/1 59/4/1
f 61/4/1 56/4/1 55/4/1
f 62/4/1 56/4/1 61/4/1
f 63/4/1 58/4/1 57/4/1
f 64/4/1 48/4/1 58/4/1
f 64/4/1 58/4/1 63/4/1
f 69/4/1 66/4/1 65/4/1
f 70/4/1 68/4/1 67/4/1
f 71/4/1 69/4/1 65/4/1
f 72/4/1 68/4/1 70/4/1
f 73/4/1 71/4/1 65/4/1
f 78/4/1 68/4/1 72/4/1
f 79/4/1 73/4/1 65/4/1
f 79/4/1 74/4/1 73/4/1
f 80/4/1 74/4/1 79/4/1
f 81/4/1 76/4/1 75/4/1
f 82/4/1 76/4/1 81/4/1
f 83/4/1 78/4/1 77/4/1
f 84/4/1 68/4/1 78/4/1
f 84/4/1 78/4/1 83/4/1
f 89/1/1 86/1/1 85/1/1
f 90/1/1 86/1/1 89/1/1
f 91/1/1 88/1/1 87/1/1
f 92/1/1 88/1/1 91/1/1
f 95/1/1 94/1/1 93/1/1
f 96/1/1 94/1/1 95/1/1
f 97/1/1 94/1/1 96/1/1
f 98/1/1 94/1/1 97/1/1
f 103/4/1 100/4/1 99/4/1
f 104/4/1 100/4/1 103/4/1
f 105/4/1 102/4/1 101/4/1
f 106/4/1 102/4/1 105/4/1
f 107/4/2 108/4/2 111/4/2
f 111/4/2 108/4/2 112/4/2
f 109/4/2 110/4/2 113/4/2
f 113/4/2 110/4/2 114/4/2
f 115/1/2 116/1/2 119/1/2
f 119/1/2 116/1/2 120/1/2
f 117/1/2 118/1/2 121/1/2
f 121/1/2 118/1/2 122/1/2
f 123/1/2 124/1/2 125/1/2
f 125/1/2 124/1/2 126/1/2
f 126/1/2 124/1/2 127/1/2
f 127/1/2 124/1/2 128/1/2
f 129/4/2 130/4/2 133/4/2
f 131/4/2 132/4/2 134/4/2
f 129/4/2 133/4/2 135/4/2
f 134/4/2 132/4/2 136/4/2
f 129/4/2 135/4/2 137/4/2
f 136/4/2 132/4/2 142/4/2
f 129/4/2 137/4/2 143/4/2
f 137/4/2 138/4/2 143/4/2
f 143/4/2 138/4/2 144/4/2
f 139/4/2 140/4/2 145/4/2
f 145/4/2 140/4/2 146/4/2
f 141/4/2 142/4/2 147/4/2
f 142/4/2 132/4/2 148/4/2
f 147/4/2 142/4/2 148/4/2
f 149/4/2 150/4/2 153/4/2
f 151/4/2 152/4/2 154/4/2
f 149/4/2 153/4/2 155/4/2
f 154/4/2 152/4/2 156/4/2
f 149/4/2 155/4/2 157/4/2
f 156/4/2 152/4/2 162/4/2
f 149/4/2 157/4/2 163/4/2
f 157/4/2 158/4/2 163/4/2
f 163/4/2 158/4/2 164/4/2
f 159/4/2 160/4/2 165/4/2
f 165/4/2 160/4/2 166/4/2
f 161/4/2 162/4/2 167/4/2
f 162/4/2 152/4/2 168/4/2
f 167/4/2 162/4/2 168/4/2
f 169/2/2 170/2/2 171/2/2
f 171/2/2 170/2/2 172/2/2
f 171/3/2 172/3/2 173/3/2
f 173/3/2 172/3/2 174/3/2
f 174/3/2 172/3/2 175/3/2
f 175/3/2 172/3/2 176/3/2
f 171/3/2 173/3/2 177/3/2
f 173/2/2 174/2/2 177/2/2
f 174/3/2 175/3/2 178/3/2
f 177/2/2 174/2/2 178/2/2
f 175/2/2 176/2/2 179/2/2
f 178/3/2 175/3/2 179/3/2
f 176/3/2 172/3/2 180/3/2
f 179/2/2 176/2/2 180/2/2
f 169/2/2 171/2/2 181/2/2
f 178/3/2 179/3/2 181/3/2
f 179/3/2 180/3/2 181/3/2
f 171/3/2 177/3/2 181/3/2
f 177/3/2 178/3/2 181/3/2
f 181/3/2 180/3/2 182/3/2
f 182/3/2 180/3/2 183/3/2
f 180/3/2 172/3/2 184/3/2
f 183/3/2 180/3/2 184/3/2
f 172/2/2 170/2/2 184/2/2
f 182/3/2 183/3/2 185/3/2
f 181/2/2 182/2/2 185/2/2
f 183/2/2 184/2/2 186/2/2
f 185/3/2 183/3/2 186/3/2
f 181/2/2 185/2/2 187/2/2
f 169/2/2 181/2/2 187/2/2
f 185/2/2 186/2/2 187/2/2
f 184/2/2 170/2/2 188/2/2
f 187/2/2 186/2/2 188/2/2
f 186/2/2 184/2/2 188/2/2
f 191/1/2 192/1/2 195/1/2
f 195/1/2 192/1/2 196/1/2
f 189/1/2 190/1/2 199/1/2
f 199/1/2 190/1/2 200/1/2
f 197/1/2 198/1/2 201/1/2
f 201/1/2 198/1/2 202/1/2
f 193/1/2 194/1/2 203/1/2
f 203/1/2 194/1/2 204/1/2
f 205/4/2 206/4/2 209/4/2
f 209/4/2 206/4/2 210/4/2
f 207/4/2 208/4/2 211/4/2
f 211/4/2 208/4/2 212/4/2
f 215/4/3 214/4/3 213/4/3
f 216/4/3 214/4/3 215/4/3
f 219/4/3 218/4/3 217/4/3
f 220/4/3 218/4/3 219/4/3
f 223/1/3 222/1/3 221/1/3
f 224/1/3 222/1/3 223/1/3
f 225/1/3 223/1/3 221/1/3
f 226/1/3 223/1/3 225/1/3
f 227/1/3 222/1/3 224/1/3
f 228/1/3 222/1/3 227/1/3
f 233/1/3 230/1/3 229/1/3
f 234/1/3 230/1/3 233/1/3
f 235/1/3 232/1/3 231/1/3
f 236/1/3 232/1/3 235/1/3
f 241/1/3 238/1/3 237/1/3
f 242/1/3 240/1/3 239/1/3
f 243/1/3 241/1/3 237/1/3
f 243/1/3 242/1/3 241/1/3
f 244/1/3 240/1/3 242/1/3
f 244/1/3 242/1/3 243/1/3
f 247/2/3 246/2/3 245/2/3
f 248/2/3 246/2/3 247/2/3
f 249/2/3 247/2/3 245/2/3
f 250/3/3 248/3/3 247/3/3
f 250/2/3 247/2/3 249/2/3
f 251/3/3 248/3/3 250/3/3
f 252/3/3 248/3/3 251/3/3
f 253/3/3 250/3/3 249/3/3
f 253/3/3 251/3/3 250/3/3
f 253/2/3 252/2/3 251/2/3
f 254/3/3 248/3/3 252/3/3
f 254/2/3 252/2/3 253/2/3
f 255/2/3 246/2/3 248/2/3
f 255/3/3 248/3/3 254/3/3
f 256/2/3 246/2/3 255/2/3
f 257/3/3 254/3/3 253/3/3
f 257/3/3 253/3/3 249/3/3
f 257/3/3 256/3/3 255/3/3
f 257/3/3 255/3/3 254/3/3
f 258/3/3 256/3/3 257/3/3
f 259/3/3 256/3/3 258/3/3
f 260/2/3 246/2/3 256/2/3
f 260/3/3 256/3/3 259/3/3
f 261/2/3 249/2/3 245/2/3
f 261/3/3 257/3/3 249/3/3
f 262/3/3 257/3/3 261/3/3
f 263/2/3 258/2/3 257/2/3
f 263/3/3 257/3/3 262/3/3
f 264/3/3 259/3/3 258/3/3
f 264/2/3 258/2/3 263/2/3
f 265/3/3 263/3/3 262/3/3
f 265/2/3 262/2/3 261/2/3
f 265/3/3 264/3/3 263/3/3
f 266/3/3 259/3/3 264/3/3
f 266/3/3 264/3/3 265/3/3
f 266/2/3 260/2/3 259/2/3
f 267/2/3 265/2/3 261/2/3
f 267/2/3 261/2/3 245/2/3
f 267/2/3 266/2/3 265/2/3
f 268/2/3 260/2/3 266/2/3
f 268/2/3 266/2/3 267/2/3
f 268/2/3 246/2/3 260/2/3
f 271/4/3 270/4/3 269/4/3
f 272/4/3 270/4/3 271/4/3
f 273/4/3 270/4/3 272/4/3
f 274/4/3 270/4/3 273/4/3
f 276/4/3 270/4/3 274/4/3
f 277/4/3 276/4/3 275/4/3
f 278/4/3 270/4/3 276/4/3
f 278/4/3 276/4/3 277/4/3
f 280/4/3 270/4/3 278/4/3
f 282/4/3 280/4/3 279/4/3
f 283/4/3 282/4/3 281/4/3
f 284/4/3 270/4/3 280/4/3
f 284/4/3 282/4/3 283/4/3
f 284/4/3 280/4/3 282/4/3
f 287/4/3 286/4/3 285/4/3
f 288/4/3 286/4/3 287/4/3
f 289/4/3 286/4/3 288/4/3
f 290/4/3 286/4/3 289/4/3
f 291/4/3 286/4/3 290/4/3
f 292/4/3 286/4/3 291/4/3
f 293/4/3 286/4/3 292/4/3
f 295/4/3 286/4/3 293/4/3
f 296/4/3 295/4/3 294/4/3
f 297/4/3 286/4/3 295/4/3
f 297/4/3 295/4/3 296/4/3
f 299/4/3 286/4/3 297/4/3
f 300/4/3 299/4/3 298/4/3
f 304/4/3 299/4/3 300/4/3
f 305/4/3 303/4/3 302/4/3
f 305/4/3 304/4/3 303/4/3
f 305/4/3 302/4/3 301/4/3
f 306/4/3 286/4/3 299/4/3
f 306/4/3 304/4/3 305/4/3
f 306/4/3 299/4/3 304/4/3
f 309/1/3 308/1/3 307/1/3
f 310/1/3 308/1/3 309/1/3
f 313/1/3 312/1/3 311/1/3
f 314/1/3 312/1/3 313/1/3
f 317/1/3 316/1/3 315/1/3
f 318/1/3 316/1/3 317/1/3
f 321/4/3 320/4/3 319/4/3
f 322/4/3 320/4/3 321/4/3
f 325/4/3 324/4/3 323/4/3
f 326/4/3 324/4/3 325/4/3
f 327/4/4 328/4/4 329/4/4
f 329/4/4 328/4/4 330/4/4
f 331/4/4 332/4/4 333/4/4
f 333/4/4 332/4/4 334/4/4
f 335/1/4 336/1/4 337/1/4
f 337/1/4 336/1/4 338/1/4
f 339/1/4 340/1/4 341/1/4
f 341/1/4 340/1/4 342/1/4
f 343/1/4 344/1/4 345/1/4
f 345/1/4 344/1/4 346/1/4
f 347/4/4 348/4/4 349/4/4
f 349/4/4 348/4/4 350/4/4
f 350/4/4 348/4/4 351/4/4
f 351/4/4 348/4/4 352/4/4
f 352/4/4 348/4/4 353/4/4
f 353/4/4 348/4/4 354/4/4
f 354/4/4 348/4/4 355/4/4
f 355/4/4 348/4/4 357/4/4
f 356/4/4 357/4/4 358/4/4
f 357/4/4 348/4/4 359/4/4
f 358/4/4 357/4/4 359/4/4
f 359/4/4 348/4/4 361/4/4
f 360/4/4 361/4/4 362/4/4
f 362/4/4 361/4/4 366/4/4
f 364/4/4 365/4/4 367/4/4
f 365/4/4 366/4/4 367/4/4
f 363/4/4 364/4/4 367/4/4
f 361/4/4 348/4/4 368/4/4
f 367/4/4 366/4/4 368/4/4
f 366/4/4 361/4/4 368/4/4
f 369/4/4 370/4/4 371/4/4
f 371/4/4 370/4/4 372/4/4
f 372/4/4 370/4/4 373/4/4
f 373/4/4 370/4/4 374/4/4
f 374/4/4 370/4/4 376/4/4
f 375/4/4 376/4/4 377/4/4
f 376/4/4 370/4/4 378/4/4
f 377/4/4 376/4/4 378/4/4
f 378/4/4 370/4/4 380/4/4
f 379/4/4 380/4/4 382/4/4
f 381/4/4 382/4/4 383/4/4
f 380/4/4 370/4/4 384/4/4
f 383/4/4 382/4/4 384/4/4
f 382/4/4 380/4/4 384/4/4
f 385/2/4 386/2/4 387/2/4
f 387/2/4 386/2/4 388/2/4
f 387/3/4 388/3/4 389/3/4
f 389/3/4 388/3/4 390/3/4
f 390/3/4 388/3/4 391/3/4
f 388/2/4 386/2/4 392/2/4
f 391/3/4 388/3/4 392/3/4
f 387/3/4 389/3/4 393/3/4
f 393/3/4 389/3/4 394/3/4
f 389/2/4 390/2/4 395/2/4
f 394/3/4 389/3/4 395/3/4
f 390/3/4 391/3/4 396/3/4
f 395/2/4 390/2/4 396/2/4
f 396/3/4 391/3/4 397/3/4
f 391/2/4 392/2/4 398/2/4
f 397/3/4 391/3/4 398/3/4
f 393/2/4 394/2/4 399/2/4
f 387/3/4 393/3/4 399/3/4
f 394/3/4 395/3/4 400/3/4
f 399/2/4 394/2/4 400/2/4
f 396/3/4 397/3/4 400/3/4
f 395/3/4 396/3/4 400/3/4
f 400/3/4 397/3/4 401/3/4
f 401/3/4 397/3/4 402/3/4
f 397/2/4 398/2/4 403/2/4
f 402/3/4 397/3/4 403/3/4
f 398/2/4 392/2/4 404/2/4
f 403/2/4 398/2/4 404/2/4
f 401/2/4 402/2/4 405/2/4
f 399/3/4 400/3/4 405/3/4
f 400/3/4 401/3/4 405/3/4
f 402/3/4 403/3/4 406/3/4
f 405/2/4 402/2/4 406/2/4
f 403/3/4 404/3/4 406/3/4
f 404/2/4 392/2/4 407/2/4
f 406/3/4 404/3/4 407/3/4
f 392/2/4 386/2/4 408/2/4
f 407/2/4 392/2/4 408/2/4
f 385/2/4 387/2/4 409/2/4
f 387/3/4 399/3/4 409/3/4
f 407/3/4 408/3/4 409/3/4
f 405/3/4 406/3/4 409/3/4
f 399/3/4 405/3/4 409/3/4
f 406/3/4 407/3/4 409/3/4
f 408/2/4 386/2/4 410/2/4
f 409/3/4 408/3/4 410/3/4
f 385/2/4 409/2/4 411/2/4
f 409/2/4 410/2/4 411/2/4
f 410/2/4 386/2/4 412/2/4
f 411/2/4 410/2/4 412/2/4
f 413/1/4 414/1/4 415/1/4
f 415/1/4 414/1/4 416/1/4
f 413/1/4 415/1/4 417/1/4
f 417/1/4 415/1/4 418/1/4
f 416/1/4 414/1/4 419/1/4
f 419/1/4 414/1/4 420/1/4
f 421/1/4 422/1/4 425/1/4
f 425/1/4 422/1/4 426/1/4
f 423/1/4 424/1/4 427/1/4
f 427/1/4 424/1/4 428/1/4
f 429/1/4 430/1/4 433/1/4
f 431/1/4 432/1/4 434/1/4
f 429/1/4 433/1/4 435/1/4
f 433/1/4 434/1/4 435/1/4
f 434/1/4 432/1/4 436/1/4
f 435/1/4 434/1/4 436/1/4
f 437/4/4 438/4/4 439/4/4
f 439/4/4 438/4/4 440/4/4
f 441/4/4 442/4/4 443/4/4
f 443/4/4 442/4/4 444/4/4
f 450/4/5 446/4/5 445/4/5
f 451/4/5 446/4/5 450/4/5
f 452/4/5 448/4/5 447/4/5
f 453/4/5 448/4/5 452/4/5
f 456/1/5 451/1/5 450/1/5
f 456/1/5 454/1/5 453/1/5
f 456/1/5 453/1/5 452/1/5
f 456/1/5 452/1/5 451/1/5
f 456/1/5 450/1/5 449/1/5
f 457/1/5 454/1/5 456/1/5
f 459/4/5 456/4/5 455/4/5
f 460/1/5 457/1/5 456/1/5
f 460/4/5 456/4/5 459/4/5
f 461/4/5 458/4/5 457/4/5
f 461/1/5 457/1/5 460/1/5
f 462/4/5 458/4/5 461/4/5
f 464/1/5 461/1/5 460/1/5
f 465/1/5 461/1/5 464/1/5
f 467/4/5 464/4/5 463/4/5
f 468/1/5 465/1/5 464/1/5
f 468/4/5 464/4/5 467/4/5
f 469/4/5 466/4/5 465/4/5
f 469/1/5 465/1/5 468/1/5
f 470/4/5 466/4/5 469/4/5
f 471/1/5 469/1/5 468/1/5
f 472/1/5 469/1/5 471/1/5
f 473/1/5 469/1/5 472/1/5
f 474/1/5 469/1/5 473/1/5
f 475/1/5 469/1/5 474/1/5
f 476/1/5 469/1/5 475/1/5
f 477/4/5 473/4/5 472/4/5
f 478/4/5 473/4/5 477/4/5
f 479/4/5 475/4/5 474/4/5
f 480/4/5 475/4/5 479/4/5
f 487/1/5 482/1/5 481/1/5
f 487/1/5 486/1/5 485/1/5
f 487/1/5 485/1/5 484/1/5
f 487/1/5 484/1/5 483/1/5
f 487/1/5 483/1/5 482/1/5
f 488/1/5 486/1/5 487/1/5
f 493/1/5 490/1/5 489/1/5
f 494/1/5 492/1/5 491/1/5
f 495/1/5 490/1/5 493/1/5
f 496/1/5 494/1/5 491/1/5
f 497/1/5 490/1/5 495/1/5
f 498/1/5 490/1/5 497/1/5
f 499/1/5 496/1/5 491/1/5
f 500/1/5 496/1/5 499/1/5
f 503/1/5 502/1/5 501/1/5
f 504/1/5 502/1/5 503/1/5
f 505/1/5 502/1/5 504/1/5
f 506/1/5 502/1/5 505/1/5
f 507/1/5 502/1/5 506/1/5
f 508/1/5 502/1/5 507/1/5
f 511/4/5 510/4/5 509/4/5
f 512/4/5 510/4/5 511/4/5
f 513/4/5 510/4/5 512/4/5
f 514/4/5 510/4/5 513/4/5
f 515/4/5 510/4/5 514/4/5
f 516/4/5 510/4/5 515/4/5
f 518/4/5 513/4/5 512/4/5
f 519/4/5 513/4/5 518/4/5
f 520/4/5 515/4/5 514/4/5
f 521/4/5 515/4/5 520/4/5
f 523/4/5 519/4/5 518/4/5
f 523/4/5 522/4/5 521/4/5
f 523/4/5 521/4/5 520/4/5
f 523/4/5 520/4/5 519/4/5
f 523/4/5 518/4/5 517/4/5
f 524/4/5 522/4/5 523/4/5
f 525/1/6 526/1/6 531/1/6
f 529/1/6 530/1/6 531/1/6
f 528/1/6 529/1/6 531/1/6
f 527/1/6 528/1/6 531/1/6
f 526/1/6 527/1/6 531/1/6
f 531/1/6 530/1/6 532/1/6
f 533/1/6 534/1/6 537/1/6
f 535/1/6 536/1/6 538/1/6
f 537/1/6 534/1/6 539/1/6
f 535/1/6 538/1/6 540/1/6
f 539/1/6 534/1/6 541/1/6
f 541/1/6 534/1/6 542/1/6
f 535/1/6 540/1/6 543/1/6
f 543/1/6 540/1/6 544/1/6
f 545/1/6 546/1/6 547/1/6
f 547/1/6 546/1/6 548/1/6
f 548/1/6 546/1/6 549/1/6
f 549/1/6 546/1/6 550/1/6
f 550/1/6 546/1/6 551/1/6
f 551/1/6 546/1/6 552/1/6
f 553/2/6 554/2/6 555/2/6
f 555/2/6 554/2/6 556/2/6
f 557/1/6 558/1/6 563/1/6
f 563/1/6 558/1/6 564/1/6
f 559/1/6 560/1/6 565/1/6
f 565/1/6 560/1/6 566/1/6
f 561/1/6 562/1/6 567/1/6
f 567/1/6 562/1/6 568/1/6
f 569/1/6 570/1/6 573/1/6
f 573/1/6 570/1/6 574/1/6
f 571/1/6 572/1/6 575/1/6
f 575/1/6 572/1/6 576/1/6
f 577/1/6 578/1/6 583/1/6
f 583/1/6 578/1/6 584/1/6
f 579/1/6 580/1/6 585/1/6
f 585/1/6 580/1/6 586/1/6
f 581/1/6 582/1/6 587/1/6
f 587/1/6 582/1/6 588/1/6
f 589/4/6 590/4/6 593/4/6
f 593/4/6 590/4/6 594/4/6
f 591/4/6 592/4/6 595/4/6
f 595/4/6 592/4/6 596/4/6
f 597/4/6 598/4/6 601/4/6
f 601/4/6 598/4/6 602/4/6
f 599/4/6 600/4/6 603/4/6
f 603/4/6 600/4/6 604/4/6
f 605/4/6 606/4/6 609/4/6
f 609/4/6 606/4/6 610/4/6
f 607/4/6 608/4/6 611/4/6
f 611/4/6 608/4/6 612/4/6
f 613/4/6 614/4/6 615/4/6
f 615/4/6 614/4/6 616/4/6
f 617/4/6 618/4/6 619/4/6
f 619/4/6 618/4/6 620/4/6
